<mxfile host="app.diagrams.net" modified="2023-03-26T13:01:35.042Z" agent="Mozilla/5.0 (Windows NT 10.0; Win64; x64; rv:109.0) Gecko/20100101 Firefox/111.0" etag="dMJbxTeogFauasZmS0Hg" version="21.1.1" type="github">
  <diagram name="Page-1" id="oF7KvoZOpcJt9PM3kyQu">
    <mxGraphModel dx="820" dy="676" grid="1" gridSize="10" guides="1" tooltips="1" connect="1" arrows="1" fold="1" page="1" pageScale="1" pageWidth="827" pageHeight="1169" math="0" shadow="0">
      <root>
        <mxCell id="0" />
        <mxCell id="1" parent="0" />
        <mxCell id="wM34gtoxZE7unvP0XhS7-49" value="&lt;div&gt;진료&lt;/div&gt;" style="shape=rhombus;perimeter=rhombusPerimeter;whiteSpace=wrap;html=1;align=center;" vertex="1" parent="1">
          <mxGeometry x="320" y="265" width="120" height="60" as="geometry" />
        </mxCell>
        <mxCell id="wM34gtoxZE7unvP0XhS7-50" value="" style="shape=link;html=1;rounded=0;" edge="1" parent="1" source="wM34gtoxZE7unvP0XhS7-54" target="wM34gtoxZE7unvP0XhS7-49">
          <mxGeometry relative="1" as="geometry">
            <mxPoint x="160" y="323.38709677419354" as="sourcePoint" />
            <mxPoint x="400" y="294.5" as="targetPoint" />
          </mxGeometry>
        </mxCell>
        <mxCell id="wM34gtoxZE7unvP0XhS7-54" value="환자" style="swimlane;fontStyle=0;childLayout=stackLayout;horizontal=1;startSize=26;horizontalStack=0;resizeParent=1;resizeParentMax=0;resizeLast=0;collapsible=1;marginBottom=0;align=center;fontSize=14;" vertex="1" parent="1">
          <mxGeometry x="90" y="162" width="160" height="266" as="geometry" />
        </mxCell>
        <mxCell id="wM34gtoxZE7unvP0XhS7-58" value="&lt;div&gt;환자번호&lt;/div&gt;" style="shape=partialRectangle;connectable=0;fillColor=none;top=0;left=0;bottom=0;right=0;align=left;spacingLeft=6;fontStyle=5;overflow=hidden;whiteSpace=wrap;html=1;" vertex="1" parent="wM34gtoxZE7unvP0XhS7-54">
          <mxGeometry y="26" width="160" height="30" as="geometry">
            <mxRectangle width="150" height="30" as="alternateBounds" />
          </mxGeometry>
        </mxCell>
        <mxCell id="wM34gtoxZE7unvP0XhS7-61" value="&lt;span style=&quot;white-space: pre;&quot;&gt;	&lt;/span&gt;일련번호" style="shape=partialRectangle;connectable=0;fillColor=none;top=0;left=0;bottom=0;right=0;align=left;spacingLeft=6;overflow=hidden;whiteSpace=wrap;html=1;" vertex="1" parent="wM34gtoxZE7unvP0XhS7-54">
          <mxGeometry y="56" width="160" height="30" as="geometry">
            <mxRectangle width="150" height="30" as="alternateBounds" />
          </mxGeometry>
        </mxCell>
        <mxCell id="wM34gtoxZE7unvP0XhS7-60" value="&lt;span style=&quot;white-space: pre;&quot;&gt;	&lt;/span&gt;성별코드()" style="shape=partialRectangle;connectable=0;fillColor=none;top=0;left=0;bottom=0;right=0;align=left;spacingLeft=6;overflow=hidden;whiteSpace=wrap;html=1;" vertex="1" parent="wM34gtoxZE7unvP0XhS7-54">
          <mxGeometry y="86" width="160" height="30" as="geometry">
            <mxRectangle width="150" height="30" as="alternateBounds" />
          </mxGeometry>
        </mxCell>
        <mxCell id="wM34gtoxZE7unvP0XhS7-59" value="&lt;span style=&quot;white-space: pre;&quot;&gt;	&lt;/span&gt;지역코드()" style="shape=partialRectangle;connectable=0;fillColor=none;top=0;left=0;bottom=0;right=0;align=left;spacingLeft=6;overflow=hidden;whiteSpace=wrap;html=1;" vertex="1" parent="wM34gtoxZE7unvP0XhS7-54">
          <mxGeometry y="116" width="160" height="30" as="geometry">
            <mxRectangle width="150" height="30" as="alternateBounds" />
          </mxGeometry>
        </mxCell>
        <mxCell id="wM34gtoxZE7unvP0XhS7-65" value="나이()" style="shape=partialRectangle;connectable=0;fillColor=none;top=0;left=0;bottom=0;right=0;align=left;spacingLeft=6;overflow=hidden;" vertex="1" parent="wM34gtoxZE7unvP0XhS7-54">
          <mxGeometry y="146" width="160" height="30" as="geometry">
            <mxRectangle width="150" height="30" as="alternateBounds" />
          </mxGeometry>
        </mxCell>
        <mxCell id="wM34gtoxZE7unvP0XhS7-64" value="주민번호" style="shape=partialRectangle;connectable=0;fillColor=none;top=0;left=0;bottom=0;right=0;align=left;spacingLeft=6;overflow=hidden;" vertex="1" parent="wM34gtoxZE7unvP0XhS7-54">
          <mxGeometry y="176" width="160" height="30" as="geometry">
            <mxRectangle width="150" height="30" as="alternateBounds" />
          </mxGeometry>
        </mxCell>
        <mxCell id="wM34gtoxZE7unvP0XhS7-63" value="주소" style="shape=partialRectangle;connectable=0;fillColor=none;top=0;left=0;bottom=0;right=0;align=left;spacingLeft=6;overflow=hidden;" vertex="1" parent="wM34gtoxZE7unvP0XhS7-54">
          <mxGeometry y="206" width="160" height="30" as="geometry">
            <mxRectangle width="150" height="30" as="alternateBounds" />
          </mxGeometry>
        </mxCell>
        <mxCell id="wM34gtoxZE7unvP0XhS7-62" value="{전화번호}" style="shape=partialRectangle;connectable=0;fillColor=none;top=0;left=0;bottom=0;right=0;align=left;spacingLeft=6;overflow=hidden;" vertex="1" parent="wM34gtoxZE7unvP0XhS7-54">
          <mxGeometry y="236" width="160" height="30" as="geometry">
            <mxRectangle width="150" height="30" as="alternateBounds" />
          </mxGeometry>
        </mxCell>
        <mxCell id="wM34gtoxZE7unvP0XhS7-77" value="" style="edgeStyle=orthogonalEdgeStyle;rounded=0;orthogonalLoop=1;jettySize=auto;html=1;" edge="1" parent="1" source="wM34gtoxZE7unvP0XhS7-49" target="wM34gtoxZE7unvP0XhS7-66">
          <mxGeometry relative="1" as="geometry">
            <mxPoint x="460" y="410" as="sourcePoint" />
            <Array as="points" />
          </mxGeometry>
        </mxCell>
        <mxCell id="wM34gtoxZE7unvP0XhS7-66" value="의사" style="swimlane;fontStyle=0;childLayout=stackLayout;horizontal=1;startSize=26;horizontalStack=0;resizeParent=1;resizeParentMax=0;resizeLast=0;collapsible=1;marginBottom=0;align=center;fontSize=14;" vertex="1" parent="1">
          <mxGeometry x="520" y="177" width="160" height="236" as="geometry" />
        </mxCell>
        <mxCell id="wM34gtoxZE7unvP0XhS7-70" value="의사번호" style="shape=partialRectangle;connectable=0;fillColor=none;top=0;left=0;bottom=0;right=0;align=left;spacingLeft=6;fontStyle=5;overflow=hidden;whiteSpace=wrap;html=1;" vertex="1" parent="wM34gtoxZE7unvP0XhS7-66">
          <mxGeometry y="26" width="160" height="30" as="geometry">
            <mxRectangle width="150" height="30" as="alternateBounds" />
          </mxGeometry>
        </mxCell>
        <mxCell id="wM34gtoxZE7unvP0XhS7-73" value="&lt;span style=&quot;white-space: pre;&quot;&gt;	&lt;/span&gt;일련번호" style="shape=partialRectangle;connectable=0;fillColor=none;top=0;left=0;bottom=0;right=0;align=left;spacingLeft=6;overflow=hidden;whiteSpace=wrap;html=1;" vertex="1" parent="wM34gtoxZE7unvP0XhS7-66">
          <mxGeometry y="56" width="160" height="30" as="geometry">
            <mxRectangle width="150" height="30" as="alternateBounds" />
          </mxGeometry>
        </mxCell>
        <mxCell id="wM34gtoxZE7unvP0XhS7-72" value="&lt;div&gt;&lt;span style=&quot;white-space: pre;&quot;&gt;	&lt;/span&gt;성별코드&lt;/div&gt;" style="shape=partialRectangle;connectable=0;fillColor=none;top=0;left=0;bottom=0;right=0;align=left;spacingLeft=6;overflow=hidden;whiteSpace=wrap;html=1;" vertex="1" parent="wM34gtoxZE7unvP0XhS7-66">
          <mxGeometry y="86" width="160" height="30" as="geometry">
            <mxRectangle width="150" height="30" as="alternateBounds" />
          </mxGeometry>
        </mxCell>
        <mxCell id="wM34gtoxZE7unvP0XhS7-71" value="&lt;span style=&quot;white-space: pre;&quot;&gt;	&lt;/span&gt;진로분야코드" style="shape=partialRectangle;connectable=0;fillColor=none;top=0;left=0;bottom=0;right=0;align=left;spacingLeft=6;overflow=hidden;whiteSpace=wrap;html=1;" vertex="1" parent="wM34gtoxZE7unvP0XhS7-66">
          <mxGeometry y="116" width="160" height="30" as="geometry">
            <mxRectangle width="150" height="30" as="alternateBounds" />
          </mxGeometry>
        </mxCell>
        <mxCell id="wM34gtoxZE7unvP0XhS7-76" value="{전화번호}" style="shape=partialRectangle;connectable=0;fillColor=none;top=0;left=0;bottom=0;right=0;align=left;spacingLeft=6;overflow=hidden;" vertex="1" parent="wM34gtoxZE7unvP0XhS7-66">
          <mxGeometry y="146" width="160" height="30" as="geometry">
            <mxRectangle width="150" height="30" as="alternateBounds" />
          </mxGeometry>
        </mxCell>
        <mxCell id="wM34gtoxZE7unvP0XhS7-75" value="진료분야명()" style="shape=partialRectangle;connectable=0;fillColor=none;top=0;left=0;bottom=0;right=0;align=left;spacingLeft=6;overflow=hidden;" vertex="1" parent="wM34gtoxZE7unvP0XhS7-66">
          <mxGeometry y="176" width="160" height="30" as="geometry">
            <mxRectangle width="150" height="30" as="alternateBounds" />
          </mxGeometry>
        </mxCell>
        <mxCell id="wM34gtoxZE7unvP0XhS7-74" value="이름" style="shape=partialRectangle;connectable=0;fillColor=none;top=0;left=0;bottom=0;right=0;align=left;spacingLeft=6;overflow=hidden;" vertex="1" parent="wM34gtoxZE7unvP0XhS7-66">
          <mxGeometry y="206" width="160" height="30" as="geometry">
            <mxRectangle width="150" height="30" as="alternateBounds" />
          </mxGeometry>
        </mxCell>
      </root>
    </mxGraphModel>
  </diagram>
</mxfile>
